<mxfile host="app.diagrams.net" agent="Mozilla/5.0 (Macintosh; Intel Mac OS X 10_15_7) AppleWebKit/537.36 (KHTML, like Gecko) Chrome/135.0.0.0 Safari/537.36" version="27.0.5">
  <diagram name="Page-1" id="AbGpAP4MnXm49M3xG25A">
    <mxGraphModel dx="1018" dy="689" grid="1" gridSize="10" guides="1" tooltips="1" connect="1" arrows="1" fold="1" page="1" pageScale="1" pageWidth="850" pageHeight="1100" math="0" shadow="0">
      <root>
        <mxCell id="0" />
        <mxCell id="1" parent="0" />
        <mxCell id="mHajlrHNez_8a4drACEi-1" value="&lt;h1 style=&quot;margin-top: 0px;&quot;&gt;ConvFSM&lt;/h1&gt;&lt;h2&gt;Accelerator&lt;/h2&gt;" style="text;html=1;whiteSpace=wrap;overflow=hidden;rounded=0;align=center;" parent="1" vertex="1">
          <mxGeometry x="335" y="10" width="180" height="120" as="geometry" />
        </mxCell>
        <mxCell id="mHajlrHNez_8a4drACEi-3" value="sCompute" style="rounded=1;whiteSpace=wrap;html=1;" parent="1" vertex="1">
          <mxGeometry x="360" y="150" width="120" height="60" as="geometry" />
        </mxCell>
        <mxCell id="mHajlrHNez_8a4drACEi-4" value="sDone" style="rounded=1;whiteSpace=wrap;html=1;" parent="1" vertex="1">
          <mxGeometry x="360" y="280" width="120" height="60" as="geometry" />
        </mxCell>
        <mxCell id="mHajlrHNez_8a4drACEi-5" value="initial" style="html=1;verticalAlign=bottom;startArrow=oval;startFill=1;endArrow=block;startSize=8;curved=0;rounded=0;entryX=0.5;entryY=0;entryDx=0;entryDy=0;" parent="1" edge="1">
          <mxGeometry width="60" relative="1" as="geometry">
            <mxPoint x="140" y="80" as="sourcePoint" />
            <mxPoint x="140" y="150" as="targetPoint" />
          </mxGeometry>
        </mxCell>
        <mxCell id="mHajlrHNez_8a4drACEi-7" value="" style="endArrow=classic;html=1;rounded=0;exitX=1;exitY=0.5;exitDx=0;exitDy=0;entryX=0;entryY=0.5;entryDx=0;entryDy=0;" parent="1" target="mHajlrHNez_8a4drACEi-3" edge="1">
          <mxGeometry width="50" height="50" relative="1" as="geometry">
            <mxPoint x="200" y="180" as="sourcePoint" />
            <mxPoint x="450" y="330" as="targetPoint" />
          </mxGeometry>
        </mxCell>
        <mxCell id="mHajlrHNez_8a4drACEi-8" value="&lt;span style=&quot;background-color: rgb(225, 213, 231);&quot;&gt;doCompute&amp;nbsp;&lt;/span&gt;&lt;div&gt;&lt;span&gt;&amp;amp;&amp;amp;&lt;/span&gt;&lt;/div&gt;&lt;div&gt;&lt;span style=&quot;background-color: rgb(225, 213, 231);&quot;&gt;cmd.valid&lt;/span&gt;&lt;/div&gt;&lt;div&gt;&lt;span&gt;&amp;amp;&amp;amp;&lt;/span&gt;&lt;/div&gt;&lt;div&gt;&lt;span style=&quot;background-color: rgb(185, 224, 165);&quot;&gt;cmd.ready&lt;/span&gt;&lt;/div&gt;" style="edgeLabel;html=1;align=center;verticalAlign=middle;resizable=0;points=[];" parent="mHajlrHNez_8a4drACEi-7" vertex="1" connectable="0">
          <mxGeometry x="-0.1125" y="1" relative="1" as="geometry">
            <mxPoint x="9" y="1" as="offset" />
          </mxGeometry>
        </mxCell>
        <mxCell id="mHajlrHNez_8a4drACEi-9" value="" style="endArrow=classic;html=1;rounded=0;exitX=0.5;exitY=1;exitDx=0;exitDy=0;entryX=0.5;entryY=0;entryDx=0;entryDy=0;" parent="1" source="mHajlrHNez_8a4drACEi-3" target="mHajlrHNez_8a4drACEi-4" edge="1">
          <mxGeometry width="50" height="50" relative="1" as="geometry">
            <mxPoint x="400" y="380" as="sourcePoint" />
            <mxPoint x="450" y="330" as="targetPoint" />
          </mxGeometry>
        </mxCell>
        <mxCell id="mHajlrHNez_8a4drACEi-10" value="&lt;span style=&quot;background-color: rgb(169, 196, 235);&quot;&gt;savedAllOutputTiles&lt;/span&gt;" style="edgeLabel;html=1;align=center;verticalAlign=middle;resizable=0;points=[];" parent="mHajlrHNez_8a4drACEi-9" vertex="1" connectable="0">
          <mxGeometry x="-0.2667" y="-1" relative="1" as="geometry">
            <mxPoint as="offset" />
          </mxGeometry>
        </mxCell>
        <mxCell id="mHajlrHNez_8a4drACEi-11" value="" style="endArrow=oval;html=1;rounded=0;exitX=0.5;exitY=1;exitDx=0;exitDy=0;endFill=1;" parent="1" source="mHajlrHNez_8a4drACEi-4" edge="1">
          <mxGeometry width="50" height="50" relative="1" as="geometry">
            <mxPoint x="420" y="460" as="sourcePoint" />
            <mxPoint x="420" y="420" as="targetPoint" />
          </mxGeometry>
        </mxCell>
        <mxCell id="mHajlrHNez_8a4drACEi-12" value="&lt;div&gt;&lt;span style=&quot;background-color: rgb(225, 213, 231);&quot;&gt;resp.fire&lt;/span&gt;&lt;/div&gt;&lt;div&gt;&amp;amp;&amp;amp;&lt;/div&gt;&lt;span style=&quot;background-color: rgb(185, 224, 165);&quot;&gt;resp.valid&lt;/span&gt;" style="edgeLabel;html=1;align=center;verticalAlign=middle;resizable=0;points=[];" parent="mHajlrHNez_8a4drACEi-11" vertex="1" connectable="0">
          <mxGeometry x="-0.325" y="1" relative="1" as="geometry">
            <mxPoint x="-1" y="13" as="offset" />
          </mxGeometry>
        </mxCell>
        <mxCell id="9_EJvV3WEVmUTqAfREFr-1" value="sIdle" style="rounded=1;whiteSpace=wrap;html=1;" vertex="1" parent="1">
          <mxGeometry x="80" y="150" width="120" height="60" as="geometry" />
        </mxCell>
        <mxCell id="9_EJvV3WEVmUTqAfREFr-2" value="&lt;h1 style=&quot;margin-top: 0px;&quot;&gt;sCompute&lt;/h1&gt;" style="text;html=1;whiteSpace=wrap;overflow=hidden;rounded=0;align=center;" vertex="1" parent="1">
          <mxGeometry x="325" y="510" width="180" height="120" as="geometry" />
        </mxCell>
        <mxCell id="9_EJvV3WEVmUTqAfREFr-8" value="" style="edgeStyle=orthogonalEdgeStyle;rounded=0;orthogonalLoop=1;jettySize=auto;html=1;" edge="1" parent="1" source="9_EJvV3WEVmUTqAfREFr-4" target="9_EJvV3WEVmUTqAfREFr-7">
          <mxGeometry relative="1" as="geometry" />
        </mxCell>
        <mxCell id="9_EJvV3WEVmUTqAfREFr-4" value="loadInputTile" style="rounded=1;whiteSpace=wrap;html=1;" vertex="1" parent="1">
          <mxGeometry x="285" y="610" width="120" height="60" as="geometry" />
        </mxCell>
        <mxCell id="9_EJvV3WEVmUTqAfREFr-5" value="&lt;span style=&quot;background-color: rgb(225, 213, 231);&quot;&gt;doCompute&amp;nbsp;&lt;/span&gt;&lt;div&gt;&amp;amp;&amp;amp;&lt;/div&gt;&lt;div&gt;&lt;span style=&quot;background-color: rgb(225, 213, 231);&quot;&gt;cmd.valid&lt;/span&gt;&lt;/div&gt;&lt;div&gt;&amp;amp;&amp;amp;&lt;/div&gt;&lt;div&gt;&lt;span style=&quot;background-color: rgb(185, 224, 165);&quot;&gt;cmd.ready&lt;/span&gt;&lt;/div&gt;" style="html=1;verticalAlign=bottom;startArrow=oval;startFill=1;endArrow=block;startSize=8;curved=0;rounded=0;entryX=0;entryY=0.5;entryDx=0;entryDy=0;" edge="1" parent="1" target="9_EJvV3WEVmUTqAfREFr-4">
          <mxGeometry x="-0.0968" width="60" relative="1" as="geometry">
            <mxPoint x="130" y="640" as="sourcePoint" />
            <mxPoint x="134.5" y="610" as="targetPoint" />
            <Array as="points">
              <mxPoint x="130" y="640" />
            </Array>
            <mxPoint as="offset" />
          </mxGeometry>
        </mxCell>
        <mxCell id="9_EJvV3WEVmUTqAfREFr-10" value="" style="edgeStyle=orthogonalEdgeStyle;rounded=0;orthogonalLoop=1;jettySize=auto;html=1;endArrow=classic;endFill=1;entryX=0.5;entryY=0;entryDx=0;entryDy=0;" edge="1" parent="1" source="9_EJvV3WEVmUTqAfREFr-7" target="9_EJvV3WEVmUTqAfREFr-13">
          <mxGeometry relative="1" as="geometry">
            <mxPoint x="565" y="750" as="targetPoint" />
          </mxGeometry>
        </mxCell>
        <mxCell id="9_EJvV3WEVmUTqAfREFr-11" value="&lt;span style=&quot;background-color: rgb(169, 196, 235);&quot;&gt;finishedAll&lt;/span&gt;" style="edgeLabel;html=1;align=center;verticalAlign=middle;resizable=0;points=[];" vertex="1" connectable="0" parent="9_EJvV3WEVmUTqAfREFr-10">
          <mxGeometry x="0.0143" relative="1" as="geometry">
            <mxPoint as="offset" />
          </mxGeometry>
        </mxCell>
        <mxCell id="9_EJvV3WEVmUTqAfREFr-7" value="calcTile" style="rounded=1;whiteSpace=wrap;html=1;" vertex="1" parent="1">
          <mxGeometry x="505" y="610" width="120" height="60" as="geometry" />
        </mxCell>
        <mxCell id="9_EJvV3WEVmUTqAfREFr-12" value="&lt;h1 style=&quot;margin-top: 0px;&quot;&gt;loadKernel&lt;/h1&gt;" style="text;html=1;whiteSpace=wrap;overflow=hidden;rounded=0;align=center;" vertex="1" parent="1">
          <mxGeometry x="325" y="860" width="180" height="40" as="geometry" />
        </mxCell>
        <mxCell id="9_EJvV3WEVmUTqAfREFr-13" value="writeOutputTile&lt;div&gt;outputTileCount ++&lt;/div&gt;" style="rounded=1;whiteSpace=wrap;html=1;" vertex="1" parent="1">
          <mxGeometry x="505" y="750" width="120" height="60" as="geometry" />
        </mxCell>
        <mxCell id="9_EJvV3WEVmUTqAfREFr-14" value="" style="endArrow=classic;html=1;rounded=0;exitX=0;exitY=0.5;exitDx=0;exitDy=0;entryX=0.5;entryY=1;entryDx=0;entryDy=0;" edge="1" parent="1" source="9_EJvV3WEVmUTqAfREFr-13" target="9_EJvV3WEVmUTqAfREFr-4">
          <mxGeometry width="50" height="50" relative="1" as="geometry">
            <mxPoint x="400" y="740" as="sourcePoint" />
            <mxPoint x="450" y="690" as="targetPoint" />
            <Array as="points">
              <mxPoint x="345" y="780" />
            </Array>
          </mxGeometry>
        </mxCell>
        <mxCell id="9_EJvV3WEVmUTqAfREFr-15" value="&lt;span style=&quot;background-color: rgb(169, 196, 235);&quot;&gt;savedOutputTile&lt;/span&gt;" style="edgeLabel;html=1;align=center;verticalAlign=middle;resizable=0;points=[];" vertex="1" connectable="0" parent="9_EJvV3WEVmUTqAfREFr-14">
          <mxGeometry x="-0.037" y="-3" relative="1" as="geometry">
            <mxPoint x="40" y="3" as="offset" />
          </mxGeometry>
        </mxCell>
        <mxCell id="9_EJvV3WEVmUTqAfREFr-16" value="" style="endArrow=oval;html=1;rounded=0;exitX=1;exitY=0.5;exitDx=0;exitDy=0;endFill=1;" edge="1" parent="1" source="9_EJvV3WEVmUTqAfREFr-13">
          <mxGeometry width="50" height="50" relative="1" as="geometry">
            <mxPoint x="400" y="790" as="sourcePoint" />
            <mxPoint x="820" y="780" as="targetPoint" />
          </mxGeometry>
        </mxCell>
        <mxCell id="9_EJvV3WEVmUTqAfREFr-17" value="&lt;span style=&quot;background-color: rgb(169, 196, 235);&quot;&gt;outputTileCount == numTiles&lt;/span&gt;" style="edgeLabel;html=1;align=center;verticalAlign=middle;resizable=0;points=[];" vertex="1" connectable="0" parent="9_EJvV3WEVmUTqAfREFr-16">
          <mxGeometry x="-0.104" y="-1" relative="1" as="geometry">
            <mxPoint x="8" y="-1" as="offset" />
          </mxGeometry>
        </mxCell>
        <mxCell id="9_EJvV3WEVmUTqAfREFr-26" value="" style="edgeStyle=orthogonalEdgeStyle;rounded=0;orthogonalLoop=1;jettySize=auto;html=1;" edge="1" parent="1" source="9_EJvV3WEVmUTqAfREFr-19" target="9_EJvV3WEVmUTqAfREFr-22">
          <mxGeometry relative="1" as="geometry" />
        </mxCell>
        <mxCell id="9_EJvV3WEVmUTqAfREFr-19" value="sIdle" style="rounded=1;whiteSpace=wrap;html=1;" vertex="1" parent="1">
          <mxGeometry x="80" y="920" width="120" height="60" as="geometry" />
        </mxCell>
        <mxCell id="9_EJvV3WEVmUTqAfREFr-21" value="&lt;span style=&quot;background-color: rgb(225, 213, 231);&quot;&gt;doLoadKernel&amp;nbsp;&lt;/span&gt;&lt;div&gt;&amp;amp;&amp;amp;&lt;/div&gt;&lt;div&gt;&lt;span style=&quot;background-color: rgb(225, 213, 231);&quot;&gt;cmd.valid&lt;/span&gt;&lt;/div&gt;&lt;div&gt;&amp;amp;&amp;amp;&lt;/div&gt;&lt;div&gt;&lt;span style=&quot;background-color: rgb(185, 224, 165);&quot;&gt;cmd.ready&lt;/span&gt;&lt;/div&gt;" style="html=1;verticalAlign=bottom;startArrow=oval;startFill=1;endArrow=block;startSize=8;curved=0;rounded=0;entryX=0.5;entryY=0;entryDx=0;entryDy=0;" edge="1" parent="1" target="9_EJvV3WEVmUTqAfREFr-19">
          <mxGeometry x="0.5714" width="60" relative="1" as="geometry">
            <mxPoint x="140" y="810" as="sourcePoint" />
            <mxPoint x="200" y="840" as="targetPoint" />
            <mxPoint as="offset" />
          </mxGeometry>
        </mxCell>
        <mxCell id="9_EJvV3WEVmUTqAfREFr-27" value="" style="edgeStyle=orthogonalEdgeStyle;rounded=0;orthogonalLoop=1;jettySize=auto;html=1;" edge="1" parent="1" source="9_EJvV3WEVmUTqAfREFr-22" target="9_EJvV3WEVmUTqAfREFr-23">
          <mxGeometry relative="1" as="geometry" />
        </mxCell>
        <mxCell id="9_EJvV3WEVmUTqAfREFr-28" value="&lt;span style=&quot;background-color: rgb(248, 206, 204);&quot;&gt;io.mem.req.valid&lt;/span&gt;&lt;div&gt;&amp;amp;&amp;amp;&lt;/div&gt;&lt;div&gt;&lt;span style=&quot;background-color: rgb(255, 229, 153);&quot;&gt;io.mem.req.ready&lt;/span&gt;&lt;/div&gt;" style="edgeLabel;html=1;align=center;verticalAlign=middle;resizable=0;points=[];" vertex="1" connectable="0" parent="9_EJvV3WEVmUTqAfREFr-27">
          <mxGeometry x="-0.0444" y="-2" relative="1" as="geometry">
            <mxPoint as="offset" />
          </mxGeometry>
        </mxCell>
        <mxCell id="9_EJvV3WEVmUTqAfREFr-22" value="sLoad" style="rounded=1;whiteSpace=wrap;html=1;" vertex="1" parent="1">
          <mxGeometry x="240" y="920" width="120" height="60" as="geometry" />
        </mxCell>
        <mxCell id="9_EJvV3WEVmUTqAfREFr-25" value="" style="edgeStyle=orthogonalEdgeStyle;rounded=0;orthogonalLoop=1;jettySize=auto;html=1;" edge="1" parent="1" source="9_EJvV3WEVmUTqAfREFr-23" target="9_EJvV3WEVmUTqAfREFr-24">
          <mxGeometry relative="1" as="geometry" />
        </mxCell>
        <mxCell id="9_EJvV3WEVmUTqAfREFr-32" value="&lt;span style=&quot;background-color: rgb(169, 196, 235);&quot;&gt;loadDone&lt;/span&gt;" style="edgeLabel;html=1;align=center;verticalAlign=middle;resizable=0;points=[];" vertex="1" connectable="0" parent="9_EJvV3WEVmUTqAfREFr-25">
          <mxGeometry x="-0.075" y="-2" relative="1" as="geometry">
            <mxPoint as="offset" />
          </mxGeometry>
        </mxCell>
        <mxCell id="9_EJvV3WEVmUTqAfREFr-23" value="sWaitMem" style="rounded=1;whiteSpace=wrap;html=1;" vertex="1" parent="1">
          <mxGeometry x="490" y="920" width="120" height="60" as="geometry" />
        </mxCell>
        <mxCell id="9_EJvV3WEVmUTqAfREFr-24" value="sDone" style="rounded=1;whiteSpace=wrap;html=1;" vertex="1" parent="1">
          <mxGeometry x="690" y="920" width="120" height="60" as="geometry" />
        </mxCell>
        <mxCell id="9_EJvV3WEVmUTqAfREFr-29" value="KEY&lt;div&gt;&lt;span style=&quot;background-color: rgb(225, 213, 231);&quot;&gt;- Core to Accelerator&lt;/span&gt;&lt;/div&gt;&lt;div&gt;&lt;span style=&quot;background-color: rgb(185, 224, 165);&quot;&gt;- Accelerator to Core&lt;/span&gt;&lt;/div&gt;&lt;div&gt;&lt;span style=&quot;background-color: rgb(169, 196, 235);&quot;&gt;- Accelerator Flags&lt;/span&gt;&lt;/div&gt;&lt;div&gt;&lt;span style=&quot;background-color: rgb(248, 206, 204);&quot;&gt;- Accelerator to Mem&lt;/span&gt;&lt;/div&gt;&lt;div&gt;&lt;span style=&quot;background-color: rgb(255, 229, 153);&quot;&gt;- Mem to Accelerator&lt;/span&gt;&lt;/div&gt;" style="rounded=1;whiteSpace=wrap;html=1;labelBackgroundColor=default;" vertex="1" parent="1">
          <mxGeometry x="640" y="400" width="150" height="120" as="geometry" />
        </mxCell>
        <mxCell id="9_EJvV3WEVmUTqAfREFr-30" value="" style="endArrow=classic;html=1;rounded=0;exitX=0.5;exitY=1;exitDx=0;exitDy=0;entryX=0.5;entryY=1;entryDx=0;entryDy=0;" edge="1" parent="1" source="9_EJvV3WEVmUTqAfREFr-23" target="9_EJvV3WEVmUTqAfREFr-22">
          <mxGeometry width="50" height="50" relative="1" as="geometry">
            <mxPoint x="600" y="810" as="sourcePoint" />
            <mxPoint x="550" y="1040" as="targetPoint" />
            <Array as="points">
              <mxPoint x="550" y="1040" />
              <mxPoint x="300" y="1040" />
            </Array>
          </mxGeometry>
        </mxCell>
        <mxCell id="9_EJvV3WEVmUTqAfREFr-33" value="&lt;span style=&quot;background-color: rgb(169, 196, 235);&quot;&gt;!loadDone&lt;/span&gt;" style="edgeLabel;html=1;align=center;verticalAlign=middle;resizable=0;points=[];" vertex="1" connectable="0" parent="9_EJvV3WEVmUTqAfREFr-30">
          <mxGeometry x="0.0108" y="1" relative="1" as="geometry">
            <mxPoint as="offset" />
          </mxGeometry>
        </mxCell>
      </root>
    </mxGraphModel>
  </diagram>
</mxfile>
